# xmcd CD database file
#
# Track frame offsets:
#	150
#	19890
#	43200
#	64755
#	89335
#	112907
#	130674
#	151139
#	175501
#	196431
#	217338
#	240930
#	257160
#
# Disc length: 3579 seconds
#
# Revision: 1
# Processed by: cddbd v1.5PL3 Copyright (c) Steve Scherf et al.
# Submitted via: CDex 1.51
#
DISCID=ad0df90d
DTITLE=白倉由美 - 白倉由美作品集ベストセレクションシリーズVOL.1 S-neryベスト盤 「夢からさめない」
DYEAR=2003
DGENRE=Japanese Pop
TTITLE0=S-nery - 運命の少女
TTITLE1=桑島法子・前田このみ - 片思いの人魚-珊瑚のテーマ-
TTITLE2=S-nery - 光の中でつかまえて
TTITLE3=桂川千絵 - 夢からさめない
TTITLE4=桑島法子 - Radio Kiss
TTITLE5=前田このみ - S-nery West - 幸福な無名時代
TTITLE6=Sanctity〜月とアイスクリーム
TTITLE7=S-nery - 千のプラトー〜愛について語るとき僕たちが語ること〜*シングルバージョン
TTITLE8=S-nery - Feel for Love〜愛をさがして〜
TTITLE9=S-nery - 二人のウォータークラウン
TTITLE10=桂川千絵・豊嶋真千子 - 青い瞳の花束
TTITLE11=S-nery - 千のプラトー〜愛について語るとき僕たちが語ること〜*アルバムバージョン
TTITLE12=S-nery - Feel for Love〜愛をさがして〜*アルバムバージョン
EXTD=YEAR: 2003
EXTT0=
EXTT1=
EXTT2=
EXTT3=
EXTT4=
EXTT5=
EXTT6=
EXTT7=
EXTT8=
EXTT9=
EXTT10=
EXTT11=
EXTT12=
PLAYORDER=
